<?xml version="1.0" encoding="UTF-8"?>
<svg id="Layer_1" xmlns="http://www.w3.org/2000/svg" xmlns:xlink="http://www.w3.org/1999/xlink" version="1.1" viewBox="0 0 149.29 52.4">
  <!-- Generator: Adobe Illustrator 29.1.0, SVG Export Plug-In . SVG Version: 2.1.0 Build 142)  -->
  <defs>
    <style>
      .st0 {
        fill: none;
      }

      .st1 {
        clip-path: url(#clippath-1);
      }

      .st2 {
        clip-path: url(#clippath-2);
      }

      .st3 {
        fill: #235937;
      }

      .st4 {
        clip-path: url(#clippath);
      }
    </style>
    <clipPath id="clippath">
      <rect class="st0" x="16.81" y="14.09" width="120" height="29.14"/>
    </clipPath>
    <clipPath id="clippath-1">
      <rect class="st0" x="16.81" y="14.09" width="120" height="29.14"/>
    </clipPath>
    <clipPath id="clippath-2">
      <rect class="st0" x="16.81" y="14.09" width="120" height="29.14"/>
    </clipPath>
  </defs>
  <g class="st4">
    <path class="st3" d="M39.49,27.37c1.7-.08,1.78-.53,1.78-2.04v-8.75c0-1.5-.28-1.7-1.78-1.82v-.38h5.62v.38c-1.54.12-1.78.38-1.78,1.82v3.92h6.12v-3.92c0-1.5-.28-1.7-1.78-1.82v-.38h5.62v.38c-1.53.12-1.78.38-1.78,1.82v8.98c0,1.33.2,1.72,1.78,1.82v.38h-5.62v-.38c1.7-.08,1.78-.53,1.78-2.04v-3.94h-6.12v4.16c0,1.33.2,1.72,1.78,1.82v.38h-5.62v-.38Z"/>
    <path class="st3" d="M61,27.31c-2.24,0-4.31-1.8-4.31-6.25s2.24-6.25,4.31-6.25,4.31,1.64,4.31,6.25-2.06,6.25-4.31,6.25M61,28.04c3.66,0,6.61-2.65,6.61-6.95,0-4.65-3.3-6.99-6.61-6.99s-6.61,2.34-6.61,6.99c0,4.31,2.95,6.95,6.61,6.95"/>
    <path class="st3" d="M85.74,14.76c-1.27.1-1.76.22-1.76,1.82v8.97c0,1.56.47,1.74,1.76,1.82v.38h-5.66v-.38c1.58-.08,1.84-.38,1.84-2.04v-9.08h-.04l-5.13,11.5h-.28l-5.03-11.04h-.04v8.07c0,2.08.42,2.53,1.9,2.59v.38h-4.75v-.38c1.54-.1,1.96-.4,1.96-2.59v-8.21c0-1.58-.42-1.74-1.92-1.82v-.38h4l4.67,10.21,4.47-10.21h4.02v.38Z"/>
    <path class="st3" d="M95.74,18.39h-.51c-.34-1.66-1.64-3.48-3.76-3.48-1.01,0-2.04.63-2.04,1.88,0,3.03,6.75,3.44,6.75,7.58,0,1.72-1.38,3.66-4.26,3.66-1.54,0-2.53-.69-3.13-.69-.42,0-.63.34-.63.67h-.44l-.61-4.28h.46c.38.95,1.42,3.58,4.14,3.58,1.62,0,2.43-1.15,2.43-2.24,0-1.15-.32-1.84-3.29-3.58-1.86-1.07-3.15-1.96-3.15-3.96,0-2.3,1.84-3.44,3.66-3.44,1.21,0,2.3.69,2.81.69.57,0,.67-.47.71-.69h.43l.44,4.31Z"/>
    <path class="st3" d="M104.8,27.31c-2.24,0-4.31-1.8-4.31-6.25s2.24-6.25,4.31-6.25,4.31,1.64,4.31,6.25-2.06,6.25-4.31,6.25M104.8,28.04c3.66,0,6.61-2.65,6.61-6.95,0-4.65-3.29-6.99-6.61-6.99s-6.61,2.34-6.61,6.99c0,4.31,2.95,6.95,6.61,6.95"/>
    <path class="st3" d="M32.95,38.56h-10.73v-.7c3.34-.15,3.45-.99,3.45-3.71V15.77h-1.98c-4.04,0-5.03.7-5.84,4.7h-.92l-.12-6.25h21.1l.22,6.25h-.88c-.77-4.04-1.8-4.7-5.84-4.7h-1.98v18.78c0,2.5.44,3.2,3.53,3.31v.7Z"/>
    <path class="st3" d="M136.81,14.96c-2.32.26-3.49.4-3.49,4.7v19.33h-.62l-16.17-20.14h-.07v14.33c0,3.79.77,4.59,3.45,4.7v.7h-8.64v-.7c2.79-.18,3.56-.74,3.56-4.7v-16.21c-1.51-1.84-2.09-2.02-3.56-2.02v-.7h6.28l14.08,17.68h.07v-12.27c0-4.23-1.03-4.52-3.53-4.7v-.7h8.64v.7Z"/>
    <path class="st3" d="M43.21,34.62c.17,0,.3-.05.4-.15.1-.1.15-.25.15-.46s-.04-.36-.13-.47c-.09-.11-.24-.16-.44-.16h-.34v1.24h.37ZM43.47,32.77c.21,0,.39.03.53.11.14.07.26.16.35.28.09.11.15.25.19.39.04.15.06.3.06.45,0,.21-.03.39-.1.55-.06.16-.15.28-.26.38-.11.1-.25.18-.41.22-.16.05-.34.07-.53.07h-.44v1.63h-.83v-4.09h1.44Z"/>
    <path class="st3" d="M48.46,34.55c.2,0,.35-.05.46-.14.11-.09.16-.25.16-.47,0-.38-.19-.57-.57-.57h-.39v1.18h.34ZM48.82,32.77c.34,0,.61.09.8.26.19.17.29.44.29.79,0,.27-.06.5-.17.67s-.28.29-.52.34h0c.21.04.36.11.45.21s.15.27.18.5c0,.08.01.16.02.25s0,.19.01.3c0,.22.02.38.04.5.02.12.07.19.15.24v.03h-.9c-.04-.06-.07-.12-.08-.2-.01-.07-.02-.15-.02-.23l-.02-.79c0-.16-.05-.29-.12-.38-.07-.09-.2-.14-.37-.14h-.44v1.73h-.83v-4.09h1.52Z"/>
  </g>
  <rect class="st3" x="52.81" y="32.77" width=".83" height="4.09"/>
  <polygon class="st3" points="58.49 35.57 58.51 35.57 58.51 32.77 59.26 32.77 59.26 36.86 58.32 36.86 57.31 33.99 57.3 33.99 57.3 36.86 56.54 36.86 56.54 32.77 57.5 32.77 58.49 35.57"/>
  <polygon class="st3" points="64.53 33.44 63.63 33.44 63.63 36.86 62.81 36.86 62.81 33.44 61.91 33.44 61.91 32.77 64.53 32.77 64.53 33.44"/>
  <rect class="st3" x="67.21" y="32.77" width=".83" height="4.09"/>
  <polygon class="st3" points="72.9 35.57 72.91 35.57 72.91 32.77 73.66 32.77 73.66 36.86 72.72 36.86 71.71 33.99 71.7 33.99 71.7 36.86 70.95 36.86 70.95 32.77 71.9 32.77 72.9 35.57"/>
  <g class="st1">
    <path class="st3" d="M78.32,33.75c-.02-.08-.05-.15-.08-.22-.04-.07-.09-.12-.15-.17-.06-.04-.13-.07-.22-.07-.2,0-.34.11-.43.33-.09.22-.13.59-.13,1.1,0,.25,0,.47.02.67.02.2.04.37.08.51.04.14.1.25.17.32.08.07.17.11.29.11.05,0,.1-.01.16-.04.06-.03.11-.07.17-.12.05-.05.1-.12.13-.2s.05-.18.05-.29v-.42h-.54v-.61h1.34v2.21h-.61v-.38h-.01c-.1.16-.22.27-.36.34-.14.07-.31.1-.5.1-.25,0-.46-.04-.62-.13-.16-.09-.28-.22-.37-.41-.09-.18-.15-.41-.18-.68-.03-.27-.05-.58-.05-.94s.02-.65.07-.91c.04-.26.12-.48.23-.65.11-.17.25-.3.42-.39.18-.09.4-.13.66-.13.45,0,.78.11.98.34.2.22.3.54.3.96h-.79c0-.08,0-.15-.03-.23"/>
    <path class="st3" d="M81.64,36.71c0,.14-.01.28-.03.4-.02.13-.06.24-.12.33-.06.09-.13.17-.23.23-.1.06-.22.1-.38.11v-.4c.1-.02.17-.07.22-.16.05-.09.07-.18.07-.29v-.07h-.3v-.89h.76v.74Z"/>
  </g>
  <rect class="st3" x="88.03" y="32.77" width=".82" height="4.09"/>
  <polygon class="st3" points="93.71 35.57 93.72 35.57 93.72 32.77 94.48 32.77 94.48 36.86 93.54 36.86 92.53 33.99 92.52 33.99 92.52 36.86 91.76 36.86 91.76 32.77 92.71 32.77 93.71 35.57"/>
  <g class="st2">
    <path class="st3" d="M98.99,33.5c-.07-.14-.2-.2-.39-.2-.1,0-.19.03-.25.08-.07.06-.12.14-.16.27-.04.12-.07.29-.08.49-.01.2-.02.45-.02.74,0,.31.01.56.03.75.02.19.05.34.1.45.04.1.1.17.17.21.07.04.14.06.23.06.07,0,.14-.01.2-.04.06-.03.12-.08.16-.15.05-.08.08-.18.11-.32.03-.14.04-.32.04-.54h.83c0,.22-.02.43-.05.63-.04.2-.1.37-.19.52-.09.15-.23.27-.4.35-.17.08-.39.13-.66.13-.31,0-.56-.05-.74-.15-.18-.1-.32-.24-.42-.43-.1-.19-.16-.41-.19-.67-.03-.26-.04-.55-.04-.86s.01-.6.04-.86c.03-.26.09-.49.19-.67.1-.19.24-.33.42-.44.18-.1.43-.16.74-.16.29,0,.53.05.7.14.17.1.3.22.38.36.08.15.14.31.16.48.02.17.03.33.03.48h-.83c0-.3-.04-.52-.11-.65"/>
  </g>
  <rect class="st3" x="101.6" y="35.96" width=".76" height=".89"/>
</svg>